HIERARCHY
ROOT HipCenter
{
    OFFSET 0.0 0.0 -0.0
    CHANNELS 6 Xposition Yposition Zposition Zrotation Xrotation Yrotation
    JOINT Spine
    {
        OFFSET 0.0 0.12094494700431824 0.0
        CHANNELS 3 Zrotation Xrotation Yrotation
        JOINT ShoulderCenter
        {
            OFFSET 0.0 0.33466991782188416 0.0
            CHANNELS 3 Zrotation Xrotation Yrotation
            JOINT LeftShoulder
            {
                OFFSET 0.1903361976146698 0.0 0.0
                CHANNELS 3 Zrotation Xrotation Yrotation
                JOINT LeftElbow
                {
                    OFFSET 0.29750776290893555 0.0 0.0
                    CHANNELS 3 Zrotation Xrotation Yrotation
                    JOINT LeftWrist
                    {
                        OFFSET 0.2960554361343384 0.0 0.0
                        CHANNELS 3 Zrotation Xrotation Yrotation
                        JOINT LeftHand
                        {
                            OFFSET 0.04406160116195679 0.0 0.0
                            CHANNELS 3 Zrotation Xrotation Yrotation
                            End Site
                            {
                                OFFSET 0.017624642699956894 0.0 0.0
                            }
                        }
                    }
                }
            }
            JOINT RightShoulder
            {
                OFFSET -0.1903361976146698 0.0 0.0
                CHANNELS 3 Zrotation Xrotation Yrotation
                JOINT RightElbow
                {
                    OFFSET -0.29750776290893555 0.0 0.0
                    CHANNELS 3 Zrotation Xrotation Yrotation
                    JOINT RightWrist
                    {
                        OFFSET -0.2960554361343384 0.0 0.0
                        CHANNELS 3 Zrotation Xrotation Yrotation
                        JOINT RightHand
                        {
                            OFFSET -0.04406160116195679 0.0 0.0
                            CHANNELS 3 Zrotation Xrotation Yrotation
                            End Site
                            {
                                OFFSET -0.017624642699956894 0.0 0.0
                            }
                        }
                    }
                }
            }
            End Site
            {
                OFFSET 0.0 0.13386796414852142 0.0
            }
        }
    }
    JOINT LeftHip
    {
        OFFSET 0.1397317349910736 0.0 0.0
        CHANNELS 3 Zrotation Xrotation Yrotation
        JOINT LeftKnee
        {
            OFFSET 0.0 -0.40643662214279175 0.0
            CHANNELS 3 Zrotation Xrotation Yrotation
            JOINT LeftAnkle
            {
                OFFSET 0.0 -0.447790265083313 0.0
                CHANNELS 3 Zrotation Xrotation Yrotation
                JOINT LeftFoot
                {
                    OFFSET 0.0 -0.10071760416030884 0.0
                    CHANNELS 3 Zrotation Xrotation Yrotation
                    End Site
                    {
                        OFFSET 0.0 0.0 0.040287040174007416
                    }
                }
            }
        }
    }
    JOINT RightHip
    {
        OFFSET -0.1397317349910736 0.0 0.0
        CHANNELS 3 Zrotation Xrotation Yrotation
        JOINT RightKnee
        {
            OFFSET 0.0 -0.40643662214279175 0.0
            CHANNELS 3 Zrotation Xrotation Yrotation
            JOINT RightAnkle
            {
                OFFSET 0.0 -0.447790265083313 0.0
                CHANNELS 3 Zrotation Xrotation Yrotation
                JOINT RightFoot
                {
                    OFFSET 0.0 -0.10071760416030884 0.0
                    CHANNELS 3 Zrotation Xrotation Yrotation
                    End Site
                    {
                        OFFSET 0.0 0.0 0.040287040174007416
                    }
                }
            }
        }
    }
}
MOTION
Frames: 10
Frame Time: 0.03333333333333333
0.49900001287460327 0.029999999329447746 1.2400000095367432 -2.933451710627781e-09 -2.366245950322098 2.3031534176462594 -1.2452814828810461 -5.306095984086554 -0.19613218303911992 -8.451520250529709e-08 -3.2488115511175265e-07 5.1870200847342955 95.12560905149856 -17.62611789521084 175.41738900640175 -2.038470110297854e-06 -9.040857764027841e-07 19.950548244386894 1.6943470320080531e-06 -24.620939399484197 12.716838968490451 1.5902773407317588e-15 4.4139062980501586e-32 3.1805546814635176e-15 -93.39002140906928 6.005371634395318 -165.14444199872796 -3.4058374758298485e-06 1.5436271018913545e-06 -25.460395111638366 -179.99999660996394 -43.874030159505764 138.47530773401039 0.0 0.0 -3.1805546814635168e-15 -0.3319550191920834 5.7504388002674185 -35.048915112428624 -3.491508193982856 5.498011906891818 -5.451942642148558 70.71679506222425 -49.1861769096779 122.0392498492337 0.0 -6.3611093629270335e-15 0.0 2.2382523103225407 9.104795656775284 37.9276194755853 1.2759033316171533 2.124389213718834 2.125389972617414 -94.30487757548451 -38.97283517377272 -151.58618413955884 -6.361109362927033e-15 4.770832022195274e-15 2.648343778830095e-31
0.5 0.03099999949336052 1.2419999837875366 0.47744769793896374 -2.862325961450995 2.68811574750793 -1.8977369829624195 -4.749511118171914 -0.2257037932136584 1.5187313416309872e-07 -2.718769416881282e-07 4.979690838191555 95.4520491321052 -19.372219820756424 175.86765847395768 -9.176216218553296e-07 -1.879321726996653e-06 20.133757286226043 9.47728868400168e-07 -33.08487523532766 12.698257598148064 -3.975693351829396e-16 2.758691436281349e-33 -7.951386703658792e-16 -93.35421719497742 6.62450461221898 -165.35741527228555 -2.0703199753538955e-06 6.345125788595305e-07 -26.426449828142946 179.9999988382809 -43.1087629286343 139.86792651392068 0.0 0.0 6.3611093629270335e-15 -0.7165593958796611 6.968614174548679 -35.55467179445878 -2.9563494366456418 4.417538816662266 -4.439695574068658 69.88593300458744 -49.32579122199588 121.5190843010458 0.0 0.0 -1.5902773407317584e-15 1.7165247782259516 9.896447617813015 37.92750547813189 1.198385486984921 1.9924655942477374 2.0111397480927327 -94.45236285138014 -39.25865290264618 -151.7805951295031 -3.1805546814635168e-15 1.7655625192200634e-31 -6.3611093629270335e-15
0.5 0.03099999949336052 1.2419999837875366 0.4735019910455601 -2.3661648913322706 2.713249248338251 -1.7540362210445195 -5.2752602720141315 -0.2364022761970686 6.530721135515822e-08 4.990662047678109e-07 4.985309250362716 95.32334049669178 -19.274403853365197 176.0288777804851 -1.4834457137787303e-06 -1.768827544517502e-06 20.311297194530983 4.205833273948532e-06 -28.426326431280707 12.618030677712355 0.0 0.0 4.770832022195277e-15 -93.42698141192547 5.533871622730837 -165.91213551761112 -3.271702556337502e-06 -2.7435039973013964e-06 -26.668683395087772 179.99999916024927 -45.204302486120746 139.4254378608679 -1.7655625192200634e-31 -6.3611093629270335e-15 -3.1805546814635168e-15 -0.7256856307134122 6.61272443115595 -36.229653689634034 -2.9280784077537705 4.267845738010287 -4.255201537522923 73.69868056346644 -57.40565529078301 122.83714211484073 -3.1805546814635176e-15 1.5902773407317588e-15 4.4139062980501586e-32 1.56242626427492 9.547959206805825 38.984027112933674 1.342506893732618 1.6837527428349532 1.692161499265489 -93.620919392057 -37.40148560539678 -151.95800691614292 -9.54166404439055e-15 6.361109362927033e-15 6.3611093629270335e-15
0.5 0.03099999949336052 1.2430000305175781 0.47744771243566025 -2.8623263254669253 2.725993405420525 -1.7263204467053879 -4.610006604514615 -0.17449021404990053 -3.8016813162861307e-08 3.5680507476887145e-07 4.900003051692502 95.23911328118557 -19.206307857230623 176.58194500114078 3.397437395388115e-07 -1.7121123419286019e-06 20.381016129195636 -7.312366500442383e-08 -24.954730038039777 11.973984180245262 3.975693351829396e-15 -3.1805546814635168e-15 1.1034765745125397e-31 -93.56351528966466 5.16152864676284 -166.23713867378652 1.246557613817034e-06 -6.588386950397915e-07 -27.595801980143 179.99999832580147 -43.90608806188464 138.67745449660748 0.0 0.0 0.0 -0.5576980527527129 7.241625964382739 -36.33666493633833 -2.6237359870717074 4.003205677885053 -4.140890368935016 74.01762995668321 -58.176505169745276 124.10419097602035 0.0 -6.361109362927033e-15 0.0 1.7283178229633807 9.91262632399816 37.89921126783766 1.4638552658789368 1.9082507960968704 1.9075033933440757 -93.84715441194155 -38.207688634738176 -151.58279890382207 0.0 0.0 0.0
0.5 0.029999999329447746 1.24399995803833 0.47350200791453717 -2.8386546118639995 2.7464950890519444 -1.725244625853135 -4.633205736365051 -0.11212590164824346 -8.985472969473149e-08 1.4276417520745859e-07 4.686006123201388 95.19687222758246 -20.03940299068557 176.73727631862707 8.660486494333845e-07 5.641097217733973e-07 20.63265381922797 -2.066715997859744e-06 -32.201026621981335 12.2404421889634 0.0 0.0 1.5902773407317584e-15 -93.79279124569665 5.191696503566559 -166.6211223469892 3.1552267032257164e-06 9.583302636230906e-08 -28.415240295856876 -179.99999597883107 -41.040655753334924 138.8032511981424 6.361109362927035e-15 0.0 0.0 -0.545549616830198 7.357422406305464 -36.49045590127006 -2.5550023340200196 3.881239725270705 -4.014127034732175 75.05437683684804 -58.32071227425712 125.17259361066942 -3.1805546814635164e-15 -6.361109362927033e-15 -1.7655625192200634e-31 1.8800995661013067 10.003665054209364 37.385293801522224 1.2642110329494227 1.9154450464441 1.8672667640608402 -94.59868548144588 -39.23663341788484 -151.07080058999802 0.0 -4.770832022195275e-15 0.0
0.5 0.029999999329447746 1.2450000047683716 0.47350200840659085 -2.838710951940901 2.72703692400431 -1.7236646882681064 -4.633715348153629 -0.1434465537024547 3.150637848656436e-09 8.219324336001e-07 4.756318100516956 95.22626551025728 -20.660504480016545 176.94658864621644 4.4135394709256245e-06 4.152427084974713e-07 20.665109406970192 -3.442810892516347e-06 -27.623338126526775 13.233070400399239 6.361109362927033e-15 -1.7655625192200634e-31 -3.1805546814635164e-15 -93.8203684547276 5.305373707755466 -166.80777663634046 -3.1608040350610016e-07 -2.5787127803568103e-06 -29.044339058429347 179.99999888677516 -43.92565600401691 138.6910808858551 0.0 7.951386703658792e-16 0.0 -0.5480593304067463 7.357292952264729 -36.47083644399849 -2.624605474608803 3.9847340970638245 -4.110661740024935 75.55459175161991 -57.67308708862778 125.8161591645155 4.4139062980501586e-32 -1.5902773407317582e-15 3.1805546814635164e-15 1.8822389084384912 10.022008095060249 37.45913487324033 1.3339012754273767 2.0010939500464597 1.9621447786738355 -94.83065306334363 -39.153528344052326 -151.45191145062543 3.180554681463516e-15 1.590277340731758e-15 3.180554681463516e-15
0.5009999871253967 0.029999999329447746 1.246000051498413 0.9469392641303842 -2.83842082335896 3.1599754968951155 -2.400177576190714 -4.586049857750959 -0.1601701156576425 -1.1975932692757446e-08 -1.380906442786763e-06 4.029697495193535 95.32843124116472 -20.65391344832315 176.72681429771143 -1.879894720134953e-07 2.0771352596477953e-07 21.0839950194214 7.197470878486465e-07 -24.427402220395887 12.881427849843305 -7.156248033292914e-15 1.5902773407317584e-15 9.931289170612858e-32 -93.78643362013099 4.642982518213841 -167.0082233180933 -1.6243632418934493e-06 -7.925440762962669e-07 -29.619298473519716 -179.99999978066853 -42.94831535709007 138.1758106440792 0.0 7.951386703658794e-16 0.0 -0.9597209362118541 7.526038943549965 -36.8463893456269 -2.649128059566838 3.800150608395758 -3.9692338973421615 75.5769507110645 -58.36784054261295 126.01886794089094 0.0 0.0 0.0 1.490612109759222 10.174578598974648 37.15149105986508 1.0648194876007326 1.878610672598805 1.8536484515753833 -93.85813439912576 -39.10922404487501 -150.8001042306669 -5.29668755766019e-31 6.3611093629270335e-15 9.54166404439055e-15
0.5 0.029999999329447746 1.246000051498413 0.4735019613229085 -1.8933534759695148 2.7460591260940674 -1.9527184365525072 -5.737777864293702 -0.19627208292471454 -1.2019323822619253e-08 -7.074054247935133e-07 4.280759676719544 95.07633195274681 -20.578333841258075 176.5064747578042 -2.223177714775055e-06 -1.2279967914346478e-06 21.089311099646157 4.32915717257291e-06 -26.166275269760042 12.098547547831016 6.361109362927033e-15 1.5902773407317582e-15 -8.827812596100317e-32 -93.79145283306359 4.620038943504467 -166.86537133248814 2.0247903690405117e-06 5.798011668430475e-07 -30.254981005616628 -179.9999985222568 -42.538119781419006 137.73021462680938 6.3611093629270335e-15 -7.951386703658792e-16 4.4139062980501586e-32 -0.5830676330716533 6.552638018331933 -36.63144162365941 -2.4857236377014114 3.759661101133527 -3.887823856583889 75.2870781010979 -57.74639035361325 125.5903144284163 4.4139062980501586e-32 -1.5902773407317582e-15 3.1805546814635164e-15 1.842181168854967 9.218275648279288 37.964004919173924 1.1612129189994422 1.9682427535721163 1.9511509104143727 -94.77416745077437 -38.670160561274024 -151.91913324200235 0.0 -6.3611093629270335e-15 0.0
0.5 0.029999999329447746 1.246999979019165 0.4735020151968631 -1.8932971687077564 3.1372574308840115 -1.9919605026824594 -5.724391466249792 -0.20102726136984905 -1.8764447099233846e-08 2.660335014556487e-07 3.6126132282034567 94.82395310219393 -20.234945854663447 176.2518713862649 -5.8656361762623195e-06 -2.292742232349371e-06 21.282862613625184 -3.4703979512645654e-06 -26.03387045252542 12.960451926532226 -3.1805546814635164e-15 1.590277340731758e-15 3.1805546814635164e-15 -93.90940904642457 3.954393768397215 -167.2519655237009 -2.776841005874649e-06 6.923715910153734e-07 -29.87829828815833 -179.99999915399425 -41.246501548472445 138.42981988196047 1.7655625192200634e-31 6.3611093629270335e-15 -3.1805546814635168e-15 -0.5381239343274228 6.556409058672047 -36.50982632371228 -2.5206766168404635 3.885825166401896 -4.03969561990917 74.08741570645186 -58.549295677893255 124.23064561854451 4.4139062980501586e-32 -1.5902773407317582e-15 3.1805546814635164e-15 1.9136085847895614 9.345952714668455 37.67647422153231 1.072759443413279 1.8596502570879228 1.843375883412468 -94.77416012610821 -38.67010946072538 -151.9191265041152 0.0 -6.3611093629270335e-15 0.0
0.5 0.029999999329447746 1.246999979019165 0.4735020177599096 -1.89329692276118 2.7275602641973355 -1.942888380900694 -5.5691675017853335 -0.1892492090706009 2.7168082050308832e-08 4.303223391153587e-07 4.118290230900572 94.66539398864812 -20.376273751216882 176.41369714743442 8.018878528726777e-07 -1.0344901505823164e-06 21.287652366236923 2.260111165942017e-06 -22.306447265499784 12.814241868510978 -2.3854160110976384e-15 9.931289170612858e-32 -4.770832022195277e-15 -93.914669486985 4.058221533612158 -167.41340725412522 -2.8083909775638765e-06 -1.5932350519772723e-06 -29.71190426583761 -179.99999911114418 -43.91375035087212 139.14687682927595 2.2069531490250793e-32 7.951386703658794e-16 -3.1805546814635176e-15 -0.5785419603761908 6.691712545230776 -36.7442130937986 -2.415922165739349 3.6384994000794775 -3.7620050224154737 75.62447249813681 -57.71912107778496 125.95863026291546 4.4139062980501586e-32 1.5902773407317584e-15 -3.1805546814635168e-15 1.9827148046843515 9.211238474392013 37.481312500878175 1.13551675392262 1.9855846611061265 1.9469171772776281 -94.02758713235768 -38.55674734700913 -151.08093658411576 6.3611093629270335e-15 -7.951386703658792e-15 4.413906298050159e-31
